# xmcd CD database file
#
# Track frame offsets:
#	150
#	31999
#	47852
#	82556
#	108192
#	140796
#	164262
#	201340
#	222247
#
# Disc length: 3361 seconds
#
# Revision: 1
# Processed by: cddbd v1.5.1PL2 Copyright (c) Steve Scherf et al.
# Submitted via: CDex 1.51
#
DISCID=770d1f09
DTITLE=Marc Copland with Greg Osby - Night Call
DYEAR=2003
DGENRE=Jazz
TTITLE0=Autumn Wind
TTITLE1=Cyrille in Motion
TTITLE2=Echoes of Another
TTITLE3=Night Call
TTITLE4=Cire
TTITLE5=Skippin' Around
TTITLE6=A Time Ago
TTITLE7=Forge
TTITLE8=Soul Eyes
EXTD=YEAR: 2003
EXTT0=
EXTT1=
EXTT2=
EXTT3=
EXTT4=
EXTT5=
EXTT6=
EXTT7=
EXTT8=
PLAYORDER=
